<?xml version="1.0" encoding="UTF-8" standalone="no"?>
<!DOCTYPE svg PUBLIC "-//W3C//DTD SVG 1.1//EN"
 "http://www.w3.org/Graphics/SVG/1.1/DTD/svg11.dtd">
<!-- Generated by graphviz version 2.43.0 (0)
 -->
<!-- Title: Tender_Response_Lifecycle Pages: 1 -->
<svg width="720pt" height="20pt"
 viewBox="0.00 0.00 720.00 20.49" xmlns="http://www.w3.org/2000/svg" xmlns:xlink="http://www.w3.org/1999/xlink">
<g id="graph0" class="graph" transform="scale(0.47 0.47) rotate(0) translate(4 40)">
<title>Tender_Response_Lifecycle</title>
<polygon fill="white" stroke="transparent" points="-4,4 -4,-40 1542,-40 1542,4 -4,4"/>
<!-- 1 -->
<g id="node1" class="node">
<title>1</title>
<path fill="lightblue" stroke="lightblue" d="M162,-36C162,-36 12,-36 12,-36 6,-36 0,-30 0,-24 0,-24 0,-12 0,-12 0,-6 6,0 12,0 12,0 162,0 162,0 168,0 174,-6 174,-12 174,-12 174,-24 174,-24 174,-30 168,-36 162,-36"/>
<text text-anchor="middle" x="87" y="-21" font-family="Times,serif" font-size="10.00">Initial Triage &amp; Understanding</text>
<text text-anchor="middle" x="87" y="-10" font-family="Times,serif" font-size="10.00">(Understand the Landscape)</text>
</g>
<!-- 2 -->
<g id="node2" class="node">
<title>2</title>
<path fill="lightblue" stroke="lightblue" d="M367,-36C367,-36 222,-36 222,-36 216,-36 210,-30 210,-24 210,-24 210,-12 210,-12 210,-6 216,0 222,0 222,0 367,0 367,0 373,0 379,-6 379,-12 379,-12 379,-24 379,-24 379,-30 373,-36 367,-36"/>
<text text-anchor="middle" x="294.5" y="-21" font-family="Times,serif" font-size="10.00">Requirements Deconstruction</text>
<text text-anchor="middle" x="294.5" y="-10" font-family="Times,serif" font-size="10.00">&amp; Compliance Matrix</text>
</g>
<!-- 1&#45;&gt;2 -->
<g id="edge1" class="edge">
<title>1&#45;&gt;2</title>
<path fill="none" stroke="black" d="M174.26,-18C182.61,-18 191.12,-18 199.54,-18"/>
<polygon fill="black" stroke="black" points="199.77,-21.5 209.77,-18 199.77,-14.5 199.77,-21.5"/>
</g>
<!-- 3 -->
<g id="node3" class="node">
<title>3</title>
<path fill="lightblue" stroke="lightblue" d="M534,-36C534,-36 427,-36 427,-36 421,-36 415,-30 415,-24 415,-24 415,-12 415,-12 415,-6 421,0 427,0 427,0 534,0 534,0 540,0 546,-6 546,-12 546,-12 546,-24 546,-24 546,-30 540,-36 534,-36"/>
<text text-anchor="middle" x="480.5" y="-21" font-family="Times,serif" font-size="10.00">Clarifications &amp;</text>
<text text-anchor="middle" x="480.5" y="-10" font-family="Times,serif" font-size="10.00">Information Gathering</text>
</g>
<!-- 2&#45;&gt;3 -->
<g id="edge2" class="edge">
<title>2&#45;&gt;3</title>
<path fill="none" stroke="black" d="M379.15,-18C387.66,-18 396.26,-18 404.66,-18"/>
<polygon fill="black" stroke="black" points="404.79,-21.5 414.79,-18 404.79,-14.5 404.79,-21.5"/>
</g>
<!-- 4 -->
<g id="node4" class="node">
<title>4</title>
<path fill="lightblue" stroke="lightblue" d="M746,-36C746,-36 594,-36 594,-36 588,-36 582,-30 582,-24 582,-24 582,-12 582,-12 582,-6 588,0 594,0 594,0 746,0 746,0 752,0 758,-6 758,-12 758,-12 758,-24 758,-24 758,-30 752,-36 746,-36"/>
<text text-anchor="middle" x="670" y="-21" font-family="Times,serif" font-size="10.00">Response Strategy &amp; Structure</text>
<text text-anchor="middle" x="670" y="-10" font-family="Times,serif" font-size="10.00">(Plan the Attack)</text>
</g>
<!-- 3&#45;&gt;4 -->
<g id="edge3" class="edge">
<title>3&#45;&gt;4</title>
<path fill="none" stroke="black" d="M546.03,-18C554.33,-18 562.96,-18 571.64,-18"/>
<polygon fill="black" stroke="black" points="571.83,-21.5 581.83,-18 571.83,-14.5 571.83,-21.5"/>
</g>
<!-- 5 -->
<g id="node5" class="node">
<title>5</title>
<path fill="lightblue" stroke="lightblue" d="M916,-36C916,-36 806,-36 806,-36 800,-36 794,-30 794,-24 794,-24 794,-12 794,-12 794,-6 800,0 806,0 806,0 916,0 916,0 922,0 928,-6 928,-12 928,-12 928,-24 928,-24 928,-30 922,-36 916,-36"/>
<text text-anchor="middle" x="861" y="-21" font-family="Times,serif" font-size="10.00">Content Planning</text>
<text text-anchor="middle" x="861" y="-10" font-family="Times,serif" font-size="10.00">(Flesh Out the Outline)</text>
</g>
<!-- 4&#45;&gt;5 -->
<g id="edge4" class="edge">
<title>4&#45;&gt;5</title>
<path fill="none" stroke="black" d="M758.03,-18C766.57,-18 775.2,-18 783.62,-18"/>
<polygon fill="black" stroke="black" points="783.77,-21.5 793.77,-18 783.77,-14.5 783.77,-21.5"/>
</g>
<!-- 6 -->
<g id="node6" class="node">
<title>6</title>
<path fill="lightblue" stroke="lightblue" d="M1128,-36C1128,-36 976,-36 976,-36 970,-36 964,-30 964,-24 964,-24 964,-12 964,-12 964,-6 970,0 976,0 976,0 1128,0 1128,0 1134,0 1140,-6 1140,-12 1140,-12 1140,-24 1140,-24 1140,-30 1134,-36 1128,-36"/>
<text text-anchor="middle" x="1052" y="-21" font-family="Times,serif" font-size="10.00">Review &amp; Refinement Planning</text>
<text text-anchor="middle" x="1052" y="-10" font-family="Times,serif" font-size="10.00">(Quality Control)</text>
</g>
<!-- 5&#45;&gt;6 -->
<g id="edge5" class="edge">
<title>5&#45;&gt;6</title>
<path fill="none" stroke="black" d="M928.1,-18C936.37,-18 944.95,-18 953.56,-18"/>
<polygon fill="black" stroke="black" points="953.67,-21.5 963.67,-18 953.67,-14.5 953.67,-21.5"/>
</g>
<!-- 7 -->
<g id="node7" class="node">
<title>7</title>
<path fill="lightblue" stroke="lightblue" d="M1320,-36C1320,-36 1188,-36 1188,-36 1182,-36 1176,-30 1176,-24 1176,-24 1176,-12 1176,-12 1176,-6 1182,0 1188,0 1188,0 1320,0 1320,0 1326,0 1332,-6 1332,-12 1332,-12 1332,-24 1332,-24 1332,-30 1326,-36 1320,-36"/>
<text text-anchor="middle" x="1254" y="-21" font-family="Times,serif" font-size="10.00">Final Checks &amp; Submission</text>
<text text-anchor="middle" x="1254" y="-10" font-family="Times,serif" font-size="10.00">(The Home Stretch)</text>
</g>
<!-- 6&#45;&gt;7 -->
<g id="edge6" class="edge">
<title>6&#45;&gt;7</title>
<path fill="none" stroke="black" d="M1140.14,-18C1148.6,-18 1157.18,-18 1165.64,-18"/>
<polygon fill="black" stroke="black" points="1165.88,-21.5 1175.88,-18 1165.88,-14.5 1165.88,-21.5"/>
</g>
<!-- 8 -->
<g id="node8" class="node">
<title>8</title>
<path fill="lightblue" stroke="lightblue" d="M1526,-36C1526,-36 1380,-36 1380,-36 1374,-36 1368,-30 1368,-24 1368,-24 1368,-12 1368,-12 1368,-6 1374,0 1380,0 1380,0 1526,0 1526,0 1532,0 1538,-6 1538,-12 1538,-12 1538,-24 1538,-24 1538,-30 1532,-36 1526,-36"/>
<text text-anchor="middle" x="1453" y="-21" font-family="Times,serif" font-size="10.00">Post&#45;Submission Engagement</text>
<text text-anchor="middle" x="1453" y="-10" font-family="Times,serif" font-size="10.00">&amp; Debriefing</text>
</g>
<!-- 7&#45;&gt;8 -->
<g id="edge7" class="edge">
<title>7&#45;&gt;8</title>
<path fill="none" stroke="black" d="M1332.01,-18C1340.47,-18 1349.14,-18 1357.78,-18"/>
<polygon fill="black" stroke="black" points="1357.87,-21.5 1367.87,-18 1357.87,-14.5 1357.87,-21.5"/>
</g>
</g>
</svg>
